<?xml version="1.0" standalone="no"?>
<!DOCTYPE svg PUBLIC "-//W3C//DTD SVG 20010904//EN"
 "http://www.w3.org/TR/2001/REC-SVG-20010904/DTD/svg10.dtd">
<svg version="1.0" xmlns="http://www.w3.org/2000/svg"
 width="1856.000000pt" height="1856.000000pt" viewBox="0 0 1856.000000 1856.000000"
 preserveAspectRatio="xMidYMid meet">
<metadata>
Created by potrace 1.14, written by Peter Selinger 2001-2017
</metadata>
<g transform="translate(0.000000,1856.000000) scale(0.100000,-0.100000)"
fill="#000000" stroke="none">
<path d="M8877 12674 c-1 -2 -33 -5 -70 -8 -37 -3 -109 -13 -159 -22 -51 -8
-102 -17 -113 -19 -11 -1 -27 -5 -35 -8 -8 -4 -26 -8 -40 -11 -30 -5 -221 -66
-235 -74 -5 -4 -12 -7 -15 -8 -49 -11 -268 -120 -376 -187 -76 -47 -189 -125
-245 -169 -113 -88 -352 -331 -365 -370 -3 -10 -9 -18 -14 -18 -18 0 -200
-291 -263 -420 -60 -124 -140 -341 -165 -450 -6 -25 -14 -58 -18 -75 -5 -16
-8 -34 -9 -40 -2 -14 -15 -97 -21 -128 -22 -124 -22 -469 1 -622 3 -22 8 -62
11 -89 3 -28 7 -54 10 -58 3 -5 8 -21 10 -36 26 -141 88 -326 170 -497 48
-101 114 -219 125 -223 5 -2 9 -8 9 -13 0 -13 87 -144 105 -159 8 -7 15 -17
15 -22 0 -5 6 -15 13 -22 6 -7 32 -37 57 -67 87 -104 250 -261 355 -342 6 -4
24 -19 40 -32 17 -14 36 -25 43 -25 6 0 12 -4 12 -9 0 -11 195 -129 309 -186
143 -72 313 -135 455 -170 78 -19 100 -23 196 -40 22 -4 117 -15 165 -20 38
-3 167 -7 191 -6 8 1 11 142 11 484 l0 482 -66 2 c-120 4 -196 18 -345 62 -72
21 -229 90 -234 103 -2 5 -8 8 -14 8 -6 0 -30 14 -55 30 -24 17 -48 30 -53 30
-4 0 -10 3 -12 8 -1 4 -28 26 -58 49 -149 112 -284 280 -377 465 -25 51 -46
97 -48 103 -1 5 -7 24 -14 40 -19 46 -59 204 -67 260 -3 28 -8 91 -10 140 -6
115 -6 103 0 155 3 25 8 65 11 90 6 54 9 72 25 130 7 25 14 52 15 60 14 65
119 301 137 308 4 2 8 8 8 14 0 43 241 318 320 365 17 9 30 21 30 25 0 4 15
15 33 24 17 9 34 20 37 24 5 7 141 84 150 85 3 1 19 8 35 17 40 21 201 75 245
83 19 3 42 8 50 10 48 13 90 17 230 20 161 4 206 -1 355 -35 297 -68 605 -278
778 -530 50 -73 127 -210 127 -226 0 -8 4 -14 9 -14 5 0 11 -6 13 -14 2 -11
46 3 183 60 99 40 190 78 203 84 26 12 16 8 237 100 94 40 175 73 180 74 35
10 85 38 85 49 0 6 -29 69 -64 138 -150 297 -349 546 -606 759 -14 12 -35 30
-48 41 -12 10 -27 19 -32 19 -6 0 -10 4 -10 9 0 5 -17 20 -37 32 -21 13 -39
27 -41 31 -2 4 -7 8 -12 8 -5 0 -35 17 -67 39 -81 54 -273 149 -388 194 -66
25 -140 51 -145 50 -3 0 -16 4 -30 9 -25 10 -45 15 -90 24 -14 3 -34 8 -45 11
-11 4 -27 8 -35 9 -15 3 -80 16 -90 19 -7 2 -107 15 -165 21 -50 6 -393 13
-398 8z"/>
<path d="M14947 12674 c-1 -1 -38 -5 -82 -9 -44 -3 -100 -8 -125 -10 -46 -5
-254 -40 -300 -51 -14 -3 -36 -8 -50 -11 -45 -9 -274 -73 -295 -82 -11 -5 -67
-25 -125 -46 -117 -41 -128 -46 -288 -122 -63 -29 -115 -53 -117 -53 -2 0 -3
54 -2 120 1 73 -2 121 -8 123 -5 1 -224 2 -485 2 l-475 -1 -3 -3228 c-2 -2836
0 -3227 13 -3223 8 4 17 2 20 -3 3 -6 15 -6 30 0 15 6 25 6 25 0 0 -5 12 -5
30 0 17 5 30 6 30 2 0 -8 98 -7 106 1 4 3 16 2 28 -3 13 -4 29 -4 36 0 8 5 18
6 23 3 11 -7 147 -10 147 -3 0 7 90 3 97 -4 3 -3 13 -1 22 4 10 5 23 5 31 0 8
-5 21 -5 30 0 9 5 22 5 30 0 8 -5 21 -5 30 0 9 5 22 5 30 0 8 -5 21 -5 31 0 9
5 19 7 22 3 4 -3 38 -6 77 -7 85 -1 83 -4 83 146 l-1 106 107 -53 c104 -52
316 -141 396 -165 22 -6 47 -14 55 -17 8 -4 18 -7 23 -8 4 -2 8 -3 10 -5 1 -1
9 -3 17 -5 8 -2 42 -11 75 -20 66 -19 117 -31 155 -39 146 -29 191 -38 226
-42 23 -3 53 -7 65 -10 23 -4 80 -10 209 -19 30 -2 55 -4 55 -5 0 -1 68 -2
150 -2 141 -1 340 7 395 17 14 2 50 6 80 10 61 6 90 10 169 26 30 6 64 12 75
14 28 4 167 39 236 59 30 9 58 16 62 17 16 1 229 79 313 114 95 39 317 145
325 155 3 4 13 9 23 13 29 11 257 156 337 215 251 185 503 428 671 648 33 43
68 88 77 100 9 11 22 28 27 36 13 21 82 125 104 158 10 14 28 45 42 70 13 25
26 47 29 50 15 14 134 259 174 358 26 61 52 124 58 140 6 15 12 32 13 37 2 6
16 53 33 105 26 80 42 133 58 195 4 17 42 188 49 220 10 48 13 67 20 125 4 30
8 66 11 80 19 115 26 542 11 690 -4 41 -9 98 -12 125 -2 28 -7 61 -10 75 -2
14 -7 39 -9 55 -2 17 -7 49 -11 72 -4 24 -6 44 -5 45 1 2 -4 17 -10 33 -6 17
-13 44 -15 60 -10 82 -98 360 -171 539 -48 117 -141 307 -194 396 -18 30 -38
64 -44 75 -11 19 -122 189 -138 210 -32 42 -185 235 -202 254 -71 82 -317 318
-401 386 -55 44 -101 83 -103 87 -2 4 -9 8 -15 8 -7 0 -26 13 -43 30 -18 16
-34 26 -38 23 -3 -3 -8 2 -12 11 -3 9 -10 16 -15 16 -5 0 -41 22 -81 48 -40
27 -95 62 -123 77 -27 16 -52 32 -55 36 -3 4 -12 8 -20 10 -8 2 -62 29 -120
58 -58 30 -109 56 -115 57 -5 1 -37 15 -70 30 -33 15 -62 28 -65 29 -3 1 -14
5 -25 9 -76 29 -110 41 -187 67 -84 27 -246 73 -298 83 -124 26 -180 37 -210
41 -19 3 -45 7 -57 9 -21 4 -61 9 -198 22 -56 6 -473 13 -478 8z m-1357 -691
c0 -7 5 -13 10 -13 6 0 10 -4 10 -8 0 -5 32 -61 70 -126 39 -64 70 -119 70
-122 0 -3 10 -20 23 -37 12 -18 28 -43 35 -57 7 -14 41 -71 74 -126 l60 -101
124 63 c68 36 124 61 124 58 0 -3 11 1 24 10 25 16 269 100 316 110 14 2 45 9
70 15 25 7 52 13 60 15 8 2 35 7 60 10 25 3 56 8 70 11 133 28 561 27 717 -1
97 -18 251 -50 278 -58 6 -2 25 -7 43 -11 18 -4 35 -12 38 -16 3 -5 14 -9 25
-9 11 0 35 -7 55 -15 19 -8 36 -14 39 -15 19 -3 189 -81 275 -127 94 -49 267
-156 280 -172 3 -3 23 -18 45 -33 22 -15 52 -39 68 -53 15 -14 27 -23 27 -20
0 4 62 -56 138 -132 135 -135 224 -241 313 -373 24 -36 46 -67 49 -70 6 -6 34
-57 100 -185 44 -84 119 -253 125 -278 1 -7 5 -19 8 -27 14 -35 57 -183 62
-213 3 -17 10 -48 15 -67 5 -19 11 -53 15 -75 3 -23 8 -52 10 -65 5 -24 9 -59
20 -176 11 -114 5 -408 -11 -487 -2 -12 -6 -44 -10 -72 -4 -40 -33 -183 -48
-240 -21 -79 -61 -205 -76 -240 -15 -33 -39 -95 -39 -100 -1 -10 -85 -172
-129 -250 -56 -98 -141 -223 -196 -290 -22 -27 -45 -56 -51 -63 -17 -23 -238
-246 -276 -278 -205 -177 -506 -349 -774 -440 -140 -48 -162 -55 -193 -60 -15
-3 -45 -10 -67 -16 -22 -5 -49 -11 -60 -13 -20 -2 -93 -14 -130 -21 -88 -17
-508 -24 -585 -10 -19 4 -53 9 -75 11 -105 14 -147 22 -245 47 -41 11 -91 23
-110 27 -19 4 -45 13 -57 20 -13 6 -23 9 -23 6 0 -3 -9 -1 -21 5 -11 6 -28 13
-37 15 -35 8 -181 71 -281 122 -58 29 -105 52 -107 50 -3 -4 -140 -243 -148
-258 -4 -8 -12 -23 -19 -34 -7 -11 -36 -63 -66 -115 -30 -52 -57 -97 -60 -100
-3 -3 -19 -30 -35 -60 -16 -30 -32 -59 -36 -63 -4 -5 -8 1218 -8 2717 0 2289
3 2724 14 2709 7 -10 14 -24 14 -30z"/>
<path d="M132 12525 c-8 -13 -9 -6424 -1 -6437 7 -11 79 -17 79 -6 0 3 13 3
30 -2 17 -5 30 -5 30 0 0 5 13 5 30 0 18 -5 30 -5 30 0 0 6 10 6 25 0 15 -6
27 -6 30 0 3 6 15 6 29 0 13 -5 27 -6 30 -3 8 8 76 9 76 1 0 -4 14 -3 30 2 17
5 30 5 30 1 0 -4 23 -5 50 -1 28 4 53 3 56 -1 3 -5 16 -4 29 1 15 6 27 6 30 0
3 -5 15 -6 28 -1 12 5 34 5 49 0 16 -4 28 -4 28 1 0 5 13 5 30 0 17 -5 30 -5
30 0 0 5 13 5 30 0 18 -5 30 -5 30 0 0 6 10 6 23 1 13 -5 30 -5 37 -1 8 5 21
5 30 0 9 -5 21 -6 26 -2 7 5 10 441 10 1357 -1 743 0 1359 2 1370 3 20 11 20
1707 19 938 0 1708 -3 1711 -7 4 -4 7 -619 7 -1368 0 -1115 3 -1362 13 -1366
18 -7 224 -9 224 -3 0 7 90 3 97 -4 3 -3 13 -1 22 4 10 5 23 5 31 0 8 -5 21
-5 30 0 9 5 22 5 30 0 8 -5 21 -5 30 0 9 5 22 5 30 0 8 -5 21 -5 31 1 11 6 20
5 24 -1 3 -5 15 -6 29 0 12 4 29 4 36 0 8 -5 21 -5 30 0 9 5 22 5 30 0 8 -5
21 -5 30 0 9 5 22 5 30 0 8 -5 21 -5 31 1 11 6 20 5 24 -1 3 -5 15 -6 29 0 12
4 28 5 34 1 6 -4 24 -6 39 -5 15 1 36 3 45 3 17 1 18 164 15 3228 l-2 3227
-473 0 c-261 1 -477 -1 -481 -4 -5 -3 -8 -612 -9 -1355 0 -742 -1 -1358 -1
-1367 -1 -17 -90 -18 -1713 -18 l-1713 0 1 1370 c0 955 -3 1370 -10 1371 -6 0
-222 2 -479 2 -304 1 -471 -2 -475 -8z"/>
<path d="M9043 10576 c-11 -18 -9 -956 2 -956 36 -1 164 -11 185 -14 112 -16
305 -71 334 -95 6 -5 16 -10 21 -11 24 -4 105 -46 168 -86 37 -24 72 -44 76
-44 5 0 11 -3 13 -7 2 -5 30 -30 63 -58 53 -43 129 -119 182 -180 10 -12 34
-43 52 -70 19 -28 37 -52 40 -55 23 -21 119 -224 149 -315 33 -101 40 -131 59
-255 8 -52 8 -288 0 -345 -10 -69 -16 -103 -29 -150 -5 -22 -12 -47 -13 -55
-5 -24 -51 -139 -81 -205 -26 -57 -128 -224 -144 -235 -4 -3 -11 -13 -16 -22
-11 -19 -114 -128 -170 -178 -137 -123 -388 -255 -559 -295 -11 -2 -38 -9 -60
-15 -118 -29 -385 -32 -530 -5 -57 11 -210 57 -255 77 -92 41 -190 91 -190 97
0 3 -12 12 -27 19 -78 34 -343 275 -343 311 0 5 -4 11 -9 13 -14 5 -106 149
-141 223 -19 39 -35 71 -36 73 -1 2 -30 -9 -65 -23 -35 -15 -68 -28 -74 -29
-19 -5 -90 -37 -117 -52 -15 -8 -30 -15 -33 -15 -7 1 -34 -10 -94 -36 -29 -12
-60 -23 -67 -23 -8 0 -14 -4 -14 -10 0 -5 -6 -10 -14 -10 -15 0 -397 -158
-409 -170 -5 -4 -4 -16 2 -26 5 -11 33 -66 62 -124 28 -58 64 -124 80 -148 16
-24 29 -45 29 -48 0 -6 96 -148 121 -179 140 -172 305 -340 401 -407 18 -13
37 -29 41 -35 4 -7 13 -13 18 -13 6 0 16 -6 23 -13 8 -6 24 -19 36 -27 12 -8
32 -22 44 -31 35 -27 246 -142 316 -173 36 -16 79 -34 95 -41 100 -44 350
-119 365 -110 5 3 11 1 14 -4 3 -5 29 -12 58 -16 29 -4 60 -8 68 -10 138 -26
367 -35 560 -22 89 7 116 10 180 22 14 3 43 8 65 11 131 20 362 94 520 167
162 76 391 211 403 240 2 4 8 7 13 7 39 0 333 282 450 430 76 97 199 282 199
300 0 6 5 10 10 10 6 0 10 9 10 19 0 11 4 21 8 23 14 5 136 270 147 318 2 8
15 49 28 90 21 64 34 114 63 245 11 49 27 184 28 232 1 24 3 43 6 43 6 0 3
284 -4 371 -17 202 -77 452 -154 646 -22 53 -113 242 -135 278 -92 153 -150
239 -242 355 -33 42 -268 274 -304 300 -18 14 -46 37 -62 52 -16 15 -29 25
-29 22 0 -2 -24 13 -52 34 -145 107 -355 217 -553 291 -60 22 -119 42 -130 44
-11 2 -45 11 -75 20 -30 9 -69 18 -87 21 -17 2 -35 6 -40 9 -4 2 -33 8 -63 12
-30 4 -66 9 -80 10 -138 19 -299 25 -307 11z"/>
</g>
</svg>
