<svg version="1.1" xmlns="http://www.w3.org/2000/svg" xmlns:xlink="http://www.w3.org/1999/xlink" viewBox="0 0 172 172"><g fill="none" fill-rule="nonzero" stroke="none" stroke-width="1" stroke-linecap="butt" stroke-linejoin="miter" stroke-miterlimit="10" stroke-dasharray="" stroke-dashoffset="0" font-family="none" font-weight="none" font-size="none" text-anchor="none" style="mix-blend-mode: normal"><path d="M0,172v-172h172v172z" fill="none"></path><g fill="#000000"><path d="M34.4,22.93333c-6.33533,0 -11.46667,5.13133 -11.46667,11.46667v103.2c0,6.33533 5.13133,11.46667 11.46667,11.46667h48.86771c-1.90921,-5.38933 -3.00104,-11.15707 -3.00104,-17.2c0,-1.548 0.09209,-3.07754 0.22396,-4.59114c-0.08026,-0.38413 -0.22396,-0.73512 -0.22396,-1.14219c0,-0.9804 0.31452,-1.85671 0.75026,-2.66511c0.84853,-5.16573 2.43846,-10.06155 4.70313,-14.59089c-3.03293,-0.1548 -5.45339,-2.61001 -5.45339,-5.67734c0,-3.1648 2.56853,-5.73333 5.73333,-5.73333c2.1672,0 3.98601,1.25184 4.96067,3.02344c4.66693,-6.07733 10.64474,-11.07089 17.52474,-14.57969c-2.94693,-0.2408 -5.28542,-2.63948 -5.28542,-5.64375c0,-3.1648 2.56853,-5.73333 5.73333,-5.73333c3.1648,0 5.73333,2.56853 5.73333,5.73333c0,1.33013 -0.53096,2.49669 -1.28776,3.47136c4.0592,-1.55947 8.34388,-2.65928 12.82161,-3.14661c-0.01147,-0.11467 -0.06719,-0.21008 -0.06719,-0.32474c0,-3.1648 2.56853,-5.73333 5.73333,-5.73333c3.1648,0 5.73333,2.56853 5.73333,5.73333c0,0.11467 -0.06146,0.21008 -0.06719,0.32474c4.0076,0.43573 7.85879,1.37483 11.53386,2.6763v-48.86771c0,-6.33533 -5.13133,-11.46667 -11.46667,-11.46667zM34.4,34.4h103.2v22.93333h-103.2zM63.06667,74.53333c3.1648,0 5.73333,2.56853 5.73333,5.73333c0,3.1648 -2.56853,5.73333 -5.73333,5.73333c-3.1648,0 -5.73333,-2.56853 -5.73333,-5.73333c0,-3.1648 2.56853,-5.73333 5.73333,-5.73333zM86,74.53333c3.1648,0 5.73333,2.56853 5.73333,5.73333c0,3.1648 -2.56853,5.73333 -5.73333,5.73333c-3.1648,0 -5.73333,-2.56853 -5.73333,-5.73333c0,-3.1648 2.56853,-5.73333 5.73333,-5.73333zM131.86667,91.73333c-22.16507,0 -40.13333,17.96827 -40.13333,40.13333c0,22.16507 17.96827,40.13333 40.13333,40.13333c22.16507,0 40.13333,-17.96827 40.13333,-40.13333c0,-22.16507 -17.96827,-40.13333 -40.13333,-40.13333zM40.13333,97.46667c3.1648,0 5.73333,2.56853 5.73333,5.73333c0,3.1648 -2.56853,5.73333 -5.73333,5.73333c-3.1648,0 -5.73333,-2.56853 -5.73333,-5.73333c0,-3.1648 2.56853,-5.73333 5.73333,-5.73333zM63.06667,97.46667c3.1648,0 5.73333,2.56853 5.73333,5.73333c0,3.1648 -2.56853,5.73333 -5.73333,5.73333c-3.1648,0 -5.73333,-2.56853 -5.73333,-5.73333c0,-3.1648 2.56853,-5.73333 5.73333,-5.73333zM131.86667,108.93333c3.1648,0 5.73333,2.5628 5.73333,5.73333v11.46667h11.46667c3.1648,0 5.73333,2.5628 5.73333,5.73333c0,3.17053 -2.56853,5.73333 -5.73333,5.73333h-11.46667v11.46667c0,3.17053 -2.56853,5.73333 -5.73333,5.73333c-3.1648,0 -5.73333,-2.5628 -5.73333,-5.73333v-11.46667h-11.46667c-3.1648,0 -5.73333,-2.5628 -5.73333,-5.73333c0,-3.17053 2.56853,-5.73333 5.73333,-5.73333h11.46667v-11.46667c0,-3.17053 2.56853,-5.73333 5.73333,-5.73333zM40.13333,120.4c3.1648,0 5.73333,2.56853 5.73333,5.73333c0,3.1648 -2.56853,5.73333 -5.73333,5.73333c-3.1648,0 -5.73333,-2.56853 -5.73333,-5.73333c0,-3.1648 2.56853,-5.73333 5.73333,-5.73333zM63.06667,120.4c3.1648,0 5.73333,2.56853 5.73333,5.73333c0,3.1648 -2.56853,5.73333 -5.73333,5.73333c-3.1648,0 -5.73333,-2.56853 -5.73333,-5.73333c0,-3.1648 2.56853,-5.73333 5.73333,-5.73333z"></path></g></g></svg>