<svg width="58" height="22" viewBox="0 0 58 22" fill="none" xmlns="http://www.w3.org/2000/svg">
<path id="HSD Logo" fill-rule="evenodd" clip-rule="evenodd" d="M3.42773 21H0.392578V0.833984H3.42773V9.40625H14.1328V0.833984H17.1543V21H14.1328V12.4277H3.42773V21ZM28.2422 14.916C27.2396 14.916 26.2985 14.7246 25.4189 14.3418C24.5394 13.959 23.7715 13.4395 23.1152 12.7832C22.459 12.1269 21.9395 11.3591 21.5566 10.4795C21.1738 9.59993 20.9824 8.65886 20.9824 7.65625C20.9824 6.65364 21.1738 5.71029 21.5566 4.82617C21.9395 3.94205 22.459 3.17188 23.1152 2.51562C23.7715 1.85937 24.5394 1.33985 25.4189 0.957031C26.2985 0.574217 27.2396 0.382812 28.2422 0.382812C28.9987 0.382812 29.7233 0.492186 30.416 0.710938C31.1087 0.929689 31.7445 1.2373 32.3232 1.63379C32.902 2.03028 33.417 2.50423 33.8682 3.05566C34.3193 3.6071 34.6816 4.21093 34.9551 4.86719L32.166 6.0293C32.002 5.64648 31.79 5.2933 31.5303 4.96973C31.2705 4.64616 30.9697 4.36817 30.6279 4.13574C30.2861 3.90332 29.9124 3.72331 29.5068 3.5957C29.1012 3.4681 28.6797 3.4043 28.2422 3.4043C27.6589 3.4043 27.1097 3.51595 26.5947 3.73926C26.0798 3.96257 25.6309 4.26562 25.248 4.64844C24.8652 5.03125 24.5622 5.48242 24.3389 6.00195C24.1156 6.52149 24.0039 7.07291 24.0039 7.65625C24.0039 8.23959 24.1156 8.78873 24.3389 9.30371C24.5622 9.81869 24.8652 10.2676 25.248 10.6504C25.6309 11.0332 26.0798 11.3363 26.5947 11.5596C27.1097 11.7829 27.6589 11.8945 28.2422 11.8945V14.916ZM28.2422 21.4512C27.4857 21.4512 26.7611 21.3418 26.0684 21.123C25.3756 20.9043 24.7376 20.5967 24.1543 20.2002C23.571 19.8037 23.056 19.3298 22.6094 18.7783C22.1628 18.2269 21.8027 17.6231 21.5293 16.9668L24.3184 15.8047C24.4824 16.1875 24.6966 16.5407 24.9609 16.8643C25.2253 17.1878 25.5283 17.4658 25.8701 17.6982C26.2119 17.9307 26.5833 18.1107 26.9844 18.2383C27.3854 18.3659 27.8047 18.4297 28.2422 18.4297C28.8255 18.4297 29.377 18.318 29.8965 18.0947C30.416 17.8714 30.8672 17.5684 31.25 17.1855C31.6328 16.8027 31.9359 16.3538 32.1592 15.8389C32.3825 15.3239 32.4941 14.7747 32.4941 14.1914C32.4941 13.6081 32.3825 13.0566 32.1592 12.5371C31.9359 12.0176 31.6328 11.5664 31.25 11.1836C30.8672 10.8008 30.416 10.4977 29.8965 10.2744C29.377 10.0511 28.8255 9.93945 28.2422 9.93945V6.91797C29.2448 6.91797 30.1881 7.10937 31.0723 7.49219C31.9564 7.875 32.7266 8.39453 33.3828 9.05078C34.0391 9.70703 34.5586 10.4772 34.9414 11.3613C35.3242 12.2454 35.5156 13.1888 35.5156 14.1914C35.5156 15.194 35.3242 16.1351 34.9414 17.0146C34.5586 17.8942 34.0391 18.6621 33.3828 19.3184C32.7266 19.9746 31.9564 20.4941 31.0723 20.877C30.1881 21.2598 29.2448 21.4512 28.2422 21.4512ZM47.3145 21.4512C46.4212 21.4512 45.5599 21.3464 44.7305 21.1367C43.901 20.9271 43.1172 20.6217 42.3789 20.2207V21H39.3438V0.833984H42.3789V1.61328C43.1172 1.22135 43.901 0.918295 44.7305 0.704102C45.5599 0.489908 46.4212 0.382812 47.3145 0.382812C48.2806 0.382812 49.2126 0.508137 50.1104 0.758789C51.0081 1.00944 51.8467 1.36263 52.626 1.81836C53.4053 2.27409 54.1162 2.82324 54.7588 3.46582C55.4014 4.1084 55.9505 4.81933 56.4062 5.59863C56.862 6.37793 57.2152 7.21875 57.4658 8.12109C57.7165 9.02344 57.8418 9.95768 57.8418 10.9238C57.8418 11.89 57.7165 12.8219 57.4658 13.7197C57.2152 14.6175 56.862 15.4561 56.4062 16.2354C55.9505 17.0147 55.4014 17.7256 54.7588 18.3682C54.1162 19.0107 53.4053 19.5599 52.626 20.0156C51.8467 20.4714 51.0081 20.8245 50.1104 21.0752C49.2126 21.3258 48.2806 21.4512 47.3145 21.4512ZM43.5547 17.4316C44.1107 17.7507 44.7054 17.9967 45.3389 18.1699C45.9723 18.3431 46.6309 18.4297 47.3145 18.4297C48.3535 18.4297 49.3288 18.2337 50.2402 17.8418C51.1517 17.4499 51.9469 16.9144 52.626 16.2354C53.305 15.5563 53.8405 14.7611 54.2324 13.8496C54.6244 12.9381 54.8203 11.9629 54.8203 10.9238C54.8203 9.88476 54.6244 8.90951 54.2324 7.99805C53.8405 7.08658 53.305 6.28907 52.626 5.60547C51.9469 4.92187 51.1517 4.38412 50.2402 3.99219C49.3288 3.60026 48.3535 3.4043 47.3145 3.4043C46.6309 3.4043 45.9723 3.49088 45.3389 3.66406C44.7054 3.83724 44.1152 4.08333 43.5684 4.40234L42.3789 2.37891V19.4688L43.5547 17.4316Z" fill="#E60028"/>
</svg>
